<?xml version="1.0" encoding="utf-8" ?>
<svg baseProfile="tiny" height="197px" version="1.2" viewBox="0 0 1067 197" width="1067px" xmlns="http://www.w3.org/2000/svg" xmlns:ev="http://www.w3.org/2001/xml-events" xmlns:xlink="http://www.w3.org/1999/xlink"><defs /><path d="M 942,44 L 942,73 L 1006,73 L 1009,76 L 1009,77 L 1010,78 L 1010,81 L 1009,82 L 1009,83 L 1007,85 L 1006,85 L 1005,86 L 961,86 L 960,87 L 955,87 L 954,88 L 953,88 L 952,89 L 951,89 L 950,90 L 949,90 L 946,93 L 946,94 L 944,96 L 944,97 L 943,98 L 943,100 L 942,101 L 942,151 L 972,151 L 972,115 L 973,114 L 1010,114 L 1011,113 L 1013,113 L 1014,112 L 1016,112 L 1017,111 L 1019,111 L 1020,110 L 1021,110 L 1022,109 L 1023,109 L 1024,108 L 1025,108 L 1029,104 L 1030,104 L 1030,103 L 1034,99 L 1034,98 L 1035,97 L 1035,96 L 1036,95 L 1036,94 L 1037,93 L 1037,92 L 1038,91 L 1038,89 L 1039,88 L 1039,84 L 1040,83 L 1040,74 L 1039,73 L 1039,68 L 1038,67 L 1038,66 L 1037,65 L 1037,64 L 1036,63 L 1036,62 L 1035,61 L 1035,60 L 1034,59 L 1034,58 L 1027,51 L 1026,51 L 1025,50 L 1024,50 L 1023,49 L 1022,49 L 1020,47 L 1018,47 L 1017,46 L 1014,46 L 1013,45 L 1009,45 L 1008,44 Z" fill="white" stroke="none" /><path d="M 899,44 L 899,151 L 929,151 L 929,44 Z" fill="white" stroke="none" /><path d="M 786,44 L 786,151 L 816,151 L 816,112 L 817,111 L 855,111 L 856,112 L 856,151 L 886,151 L 886,44 L 856,44 L 856,82 L 855,83 L 818,83 L 816,81 L 816,44 Z" fill="white" stroke="none" /><path d="M 513,44 L 512,45 L 506,45 L 505,46 L 502,46 L 501,47 L 499,47 L 498,48 L 497,48 L 495,50 L 494,50 L 493,51 L 492,51 L 486,57 L 486,58 L 484,60 L 484,61 L 483,62 L 483,63 L 482,64 L 482,66 L 481,67 L 481,84 L 482,85 L 482,88 L 484,90 L 484,91 L 485,92 L 485,93 L 488,96 L 488,98 L 487,99 L 487,100 L 484,103 L 484,104 L 483,105 L 483,106 L 482,107 L 482,109 L 481,110 L 481,114 L 480,115 L 480,124 L 481,125 L 481,129 L 482,130 L 482,132 L 483,133 L 483,134 L 485,136 L 485,137 L 492,144 L 493,144 L 494,145 L 495,145 L 496,146 L 497,146 L 499,148 L 501,148 L 502,149 L 505,149 L 506,150 L 512,150 L 513,151 L 579,151 L 579,122 L 515,122 L 514,121 L 513,121 L 511,119 L 511,114 L 513,112 L 514,112 L 515,111 L 577,111 L 578,110 L 578,84 L 516,84 L 515,83 L 514,83 L 511,80 L 511,77 L 515,73 L 613,73 L 614,74 L 614,151 L 644,151 L 644,74 L 645,73 L 674,73 L 675,74 L 675,85 L 676,86 L 676,89 L 677,90 L 677,92 L 678,93 L 678,94 L 680,96 L 680,97 L 683,100 L 683,101 L 684,101 L 687,104 L 688,104 L 689,105 L 690,105 L 692,107 L 694,107 L 695,108 L 696,108 L 697,109 L 701,109 L 702,110 L 710,110 L 711,111 L 745,111 L 749,115 L 749,118 L 745,122 L 677,122 L 676,123 L 676,151 L 747,151 L 748,150 L 754,150 L 755,149 L 757,149 L 758,148 L 760,148 L 761,147 L 762,147 L 764,145 L 765,145 L 766,144 L 767,144 L 773,138 L 773,137 L 774,136 L 774,135 L 775,134 L 775,133 L 776,132 L 776,130 L 777,129 L 777,127 L 778,126 L 778,122 L 779,121 L 779,113 L 778,112 L 778,108 L 777,107 L 777,105 L 776,104 L 776,102 L 775,101 L 775,100 L 774,99 L 774,98 L 771,95 L 771,94 L 768,91 L 767,91 L 765,89 L 764,89 L 763,88 L 762,88 L 761,87 L 760,87 L 759,86 L 756,86 L 755,85 L 752,85 L 751,84 L 745,84 L 744,83 L 709,83 L 708,82 L 707,82 L 705,80 L 705,75 L 707,73 L 771,73 L 771,44 Z" fill="white" stroke="none" /><path d="M 376,44 L 376,151 L 406,151 L 406,113 L 408,111 L 422,111 L 423,112 L 426,112 L 427,113 L 428,113 L 433,118 L 433,119 L 434,120 L 434,121 L 435,122 L 435,123 L 436,124 L 436,125 L 438,127 L 438,128 L 439,129 L 439,130 L 440,131 L 440,132 L 441,133 L 441,134 L 443,136 L 443,137 L 444,138 L 444,139 L 446,141 L 446,143 L 448,145 L 448,146 L 449,147 L 449,148 L 451,150 L 451,151 L 485,151 L 484,150 L 484,149 L 483,148 L 483,147 L 482,146 L 482,145 L 481,144 L 481,143 L 479,141 L 479,140 L 478,139 L 478,138 L 477,137 L 477,136 L 476,135 L 476,134 L 475,133 L 475,132 L 473,130 L 473,129 L 472,128 L 472,127 L 470,125 L 470,123 L 469,122 L 469,121 L 467,119 L 467,118 L 465,116 L 465,115 L 464,114 L 464,113 L 463,112 L 463,111 L 461,109 L 461,108 L 460,107 L 460,106 L 458,104 L 458,103 L 451,96 L 454,93 L 454,92 L 457,89 L 457,88 L 459,86 L 459,85 L 460,84 L 460,83 L 462,81 L 462,80 L 463,79 L 463,78 L 464,77 L 464,76 L 465,75 L 465,74 L 466,73 L 466,72 L 468,70 L 468,69 L 469,68 L 469,67 L 470,66 L 470,65 L 471,64 L 471,63 L 472,62 L 472,61 L 474,59 L 474,58 L 475,57 L 475,56 L 476,55 L 476,54 L 477,53 L 477,52 L 478,51 L 478,50 L 480,48 L 480,47 L 481,46 L 481,45 L 482,44 L 449,44 L 447,46 L 447,48 L 445,50 L 445,51 L 444,52 L 444,53 L 443,54 L 443,55 L 441,57 L 441,58 L 440,59 L 440,60 L 439,61 L 439,62 L 438,63 L 438,64 L 437,65 L 437,66 L 435,68 L 435,69 L 434,70 L 434,71 L 433,72 L 433,73 L 431,75 L 431,76 L 430,77 L 430,78 L 429,79 L 429,80 L 427,82 L 426,82 L 425,83 L 424,83 L 423,84 L 407,84 L 406,83 L 406,44 Z" fill="white" stroke="none" /><path d="M 311,44 L 310,45 L 304,45 L 303,46 L 300,46 L 299,47 L 296,47 L 294,49 L 292,49 L 291,50 L 290,50 L 289,51 L 288,51 L 286,53 L 285,53 L 276,62 L 276,63 L 274,65 L 274,66 L 273,67 L 273,68 L 272,69 L 272,71 L 271,72 L 271,73 L 270,74 L 270,75 L 269,76 L 269,79 L 268,80 L 268,85 L 267,86 L 267,108 L 268,109 L 268,115 L 269,116 L 269,119 L 270,120 L 270,121 L 271,122 L 271,123 L 272,124 L 272,126 L 273,127 L 273,128 L 274,129 L 274,130 L 276,132 L 276,133 L 280,137 L 280,138 L 281,138 L 285,142 L 286,142 L 288,144 L 289,144 L 290,145 L 291,145 L 292,146 L 294,146 L 295,147 L 296,147 L 297,148 L 299,148 L 300,149 L 303,149 L 304,150 L 310,150 L 311,151 L 365,151 L 365,122 L 311,122 L 310,121 L 308,121 L 307,120 L 305,120 L 300,115 L 300,114 L 299,113 L 299,112 L 298,111 L 298,109 L 297,108 L 297,88 L 298,87 L 298,84 L 299,83 L 299,81 L 305,75 L 307,75 L 308,74 L 310,74 L 311,73 L 364,73 L 365,72 L 365,44 Z" fill="white" stroke="none" /><path d="M 184,44 L 183,45 L 177,45 L 176,46 L 172,46 L 171,47 L 170,47 L 169,48 L 168,48 L 167,49 L 166,49 L 165,50 L 163,50 L 162,51 L 161,51 L 159,53 L 158,53 L 148,63 L 148,64 L 147,65 L 147,66 L 146,67 L 146,68 L 145,69 L 145,71 L 144,72 L 144,73 L 143,74 L 143,75 L 142,76 L 142,79 L 141,80 L 141,85 L 140,86 L 140,109 L 141,110 L 141,115 L 142,116 L 142,119 L 143,120 L 143,122 L 144,123 L 144,124 L 145,125 L 145,126 L 146,127 L 146,128 L 147,129 L 147,130 L 148,131 L 148,132 L 152,136 L 152,137 L 154,139 L 155,139 L 158,142 L 159,142 L 161,144 L 162,144 L 163,145 L 164,145 L 165,146 L 166,146 L 167,147 L 169,147 L 170,148 L 172,148 L 173,149 L 176,149 L 177,150 L 183,150 L 184,151 L 214,151 L 215,150 L 221,150 L 222,149 L 226,149 L 227,148 L 228,148 L 229,147 L 231,147 L 232,146 L 233,146 L 234,145 L 235,145 L 236,144 L 237,144 L 238,143 L 239,143 L 243,139 L 244,139 L 247,136 L 247,135 L 251,131 L 251,130 L 252,129 L 252,128 L 253,127 L 253,126 L 254,125 L 254,123 L 255,122 L 255,121 L 256,120 L 256,118 L 257,117 L 257,113 L 258,112 L 258,103 L 259,102 L 259,93 L 258,92 L 258,84 L 257,83 L 257,79 L 256,78 L 256,75 L 255,74 L 255,73 L 254,72 L 254,71 L 253,70 L 253,69 L 252,68 L 252,66 L 250,64 L 250,63 L 247,60 L 247,59 L 244,56 L 243,56 L 239,52 L 238,52 L 237,51 L 236,51 L 235,50 L 234,50 L 233,49 L 232,49 L 231,48 L 230,48 L 229,47 L 227,47 L 226,46 L 223,46 L 222,45 L 215,45 L 214,44 Z" fill="white" stroke="none" /><path d="M 183,74 L 184,73 L 215,73 L 216,74 L 218,74 L 219,75 L 220,75 L 221,76 L 222,76 L 224,78 L 224,79 L 226,81 L 226,82 L 227,83 L 227,85 L 228,86 L 228,92 L 229,93 L 229,102 L 228,103 L 228,109 L 227,110 L 227,112 L 226,113 L 226,114 L 223,117 L 223,118 L 222,119 L 221,119 L 220,120 L 219,120 L 218,121 L 216,121 L 215,122 L 184,122 L 183,121 L 180,121 L 179,120 L 178,120 L 173,115 L 173,114 L 172,113 L 172,112 L 171,111 L 171,109 L 170,108 L 170,88 L 171,87 L 171,84 L 172,83 L 172,82 L 173,81 L 173,80 L 178,75 L 180,75 L 181,74 Z" fill="black" stroke="none" /><path d="M 32,44 L 32,73 L 99,73 L 100,74 L 101,74 L 102,75 L 102,76 L 103,77 L 103,82 L 99,86 L 51,86 L 50,87 L 46,87 L 45,88 L 43,88 L 41,90 L 40,90 L 39,91 L 38,91 L 37,92 L 37,93 L 35,95 L 35,96 L 34,97 L 34,98 L 33,99 L 33,104 L 32,105 L 32,151 L 62,151 L 62,116 L 64,114 L 82,114 L 84,116 L 84,117 L 85,118 L 85,119 L 88,122 L 88,123 L 89,124 L 89,125 L 91,127 L 91,128 L 93,130 L 93,131 L 95,133 L 95,134 L 96,135 L 96,136 L 99,139 L 99,140 L 100,141 L 100,142 L 102,144 L 102,145 L 104,147 L 104,148 L 106,150 L 106,151 L 141,151 L 138,148 L 138,147 L 137,146 L 137,145 L 135,143 L 135,142 L 133,140 L 133,139 L 131,137 L 131,136 L 130,135 L 130,134 L 128,132 L 128,131 L 126,129 L 126,128 L 125,127 L 125,126 L 123,124 L 123,123 L 121,121 L 121,120 L 120,119 L 120,118 L 118,116 L 118,115 L 116,113 L 116,112 L 115,111 L 115,110 L 116,109 L 117,109 L 119,107 L 120,107 L 126,101 L 126,100 L 129,97 L 129,96 L 130,95 L 130,93 L 131,92 L 131,90 L 132,89 L 132,85 L 133,84 L 133,72 L 132,71 L 132,68 L 131,67 L 131,65 L 130,64 L 130,62 L 129,61 L 129,60 L 124,55 L 124,54 L 122,52 L 121,52 L 120,51 L 119,51 L 117,49 L 116,49 L 115,48 L 114,48 L 113,47 L 112,47 L 111,46 L 108,46 L 107,45 L 102,45 L 101,44 Z" fill="white" stroke="none" /></svg>